<svg width="97" height="60" viewBox="0 0 97 60" fill="none" xmlns="http://www.w3.org/2000/svg">
<path fill-rule="evenodd" clip-rule="evenodd" d="M31.5 28.5C34.7081 33.6341 41.7293 42.6398 48.603 42.7805C54.753 42.7805 59.9905 37.6941 63.7777 32.5941C66.6889 28.6737 66.8707 31.8056 67.2488 33.6817C67.9383 38.9746 72.4644 43.062 77.9452 43.062C83.9029 43.062 88.7326 38.2323 88.7326 32.2747C88.7326 26.3169 83.9029 21.4873 77.9452 21.4873C76.4473 21.4873 75.003 21.8618 73.7241 22.3445C72.317 22.8755 70.1754 21.9563 71.2737 18.6732C73.9628 10.6346 73.2444 4.71523 68.8285 1.95585C61.9987 -2.31192 58.0963 0.974665 52.7327 6.33813C51.9109 7.09707 50.3921 7.8766 48.8663 7.88587C47.3132 7.89529 45.7528 7.12095 44.9122 6.35304C38.8233 0.791304 34.7615 -1.51331 28.9659 2.10818C23.1704 5.72966 24.0876 16.6378 31.5 28.5ZM19.7873 44C25.745 44 30.5747 39.1703 30.5747 33.2127C30.5747 27.255 25.745 22.4253 19.7873 22.4253C13.8297 22.4253 9 27.255 9 33.2127C9 39.1703 13.8297 44 19.7873 44Z" fill="url(#paint0_linear_558_3188)"/>
<path d="M0.54 59L2.076 49.952H4.404L6.216 54.776L8.016 49.952H10.344L11.88 59H9.54L8.76 53.792L6.624 59H5.688L3.66 53.792L2.88 59H0.54ZM17.3378 55.028C17.2658 54.724 17.1178 54.48 16.8938 54.296C16.6698 54.112 16.3978 54.02 16.0778 54.02C15.7418 54.02 15.4658 54.108 15.2498 54.284C15.0418 54.46 14.9098 54.708 14.8538 55.028H17.3378ZM14.7938 56.288C14.7938 57.224 15.2338 57.692 16.1138 57.692C16.5858 57.692 16.9418 57.5 17.1818 57.116H19.2818C18.8578 58.524 17.7978 59.228 16.1018 59.228C15.5818 59.228 15.1058 59.152 14.6738 59C14.2418 58.84 13.8698 58.616 13.5578 58.328C13.2538 58.04 13.0178 57.696 12.8498 57.296C12.6818 56.896 12.5978 56.448 12.5978 55.952C12.5978 55.44 12.6778 54.98 12.8378 54.572C12.9978 54.156 13.2258 53.804 13.5218 53.516C13.8178 53.228 14.1738 53.008 14.5898 52.856C15.0138 52.696 15.4898 52.616 16.0178 52.616C16.5378 52.616 17.0058 52.696 17.4218 52.856C17.8378 53.008 18.1898 53.232 18.4778 53.528C18.7658 53.824 18.9858 54.188 19.1378 54.62C19.2898 55.044 19.3658 55.524 19.3658 56.06V56.288H14.7938ZM20.6073 52.844H22.7793V53.852C23.0113 53.484 23.2953 53.204 23.6313 53.012C23.9673 52.812 24.3593 52.712 24.8073 52.712C24.8633 52.712 24.9233 52.712 24.9873 52.712C25.0593 52.712 25.1393 52.72 25.2273 52.736V54.812C24.9393 54.668 24.6273 54.596 24.2913 54.596C23.7873 54.596 23.4073 54.748 23.1513 55.052C22.9033 55.348 22.7793 55.784 22.7793 56.36V59H20.6073V52.844ZM30.8997 54.836C30.5237 54.58 30.1437 54.452 29.7597 54.452C29.5517 54.452 29.3557 54.488 29.1717 54.56C28.9957 54.632 28.8397 54.736 28.7037 54.872C28.5677 55 28.4597 55.156 28.3797 55.34C28.3077 55.516 28.2717 55.716 28.2717 55.94C28.2717 56.156 28.3077 56.356 28.3797 56.54C28.4597 56.716 28.5637 56.872 28.6917 57.008C28.8277 57.136 28.9877 57.236 29.1717 57.308C29.3557 57.38 29.5517 57.416 29.7597 57.416C30.1677 57.416 30.5477 57.276 30.8997 56.996V58.844C30.3637 59.076 29.8557 59.192 29.3757 59.192C28.9277 59.192 28.4997 59.116 28.0917 58.964C27.6917 58.812 27.3357 58.596 27.0237 58.316C26.7197 58.028 26.4757 57.688 26.2917 57.296C26.1077 56.896 26.0157 56.452 26.0157 55.964C26.0157 55.476 26.1037 55.032 26.2797 54.632C26.4557 54.224 26.6957 53.876 26.9997 53.588C27.3037 53.292 27.6637 53.064 28.0797 52.904C28.5037 52.736 28.9557 52.652 29.4357 52.652C29.9637 52.652 30.4517 52.764 30.8997 52.988V54.836ZM34.3105 52.844V59H32.1385V52.844H34.3105ZM31.9945 50.48C31.9945 50.312 32.0265 50.156 32.0905 50.012C32.1545 49.86 32.2425 49.728 32.3545 49.616C32.4665 49.504 32.5945 49.416 32.7385 49.352C32.8905 49.288 33.0505 49.256 33.2185 49.256C33.3865 49.256 33.5425 49.288 33.6865 49.352C33.8385 49.416 33.9705 49.504 34.0825 49.616C34.1945 49.728 34.2825 49.86 34.3465 50.012C34.4105 50.156 34.4425 50.312 34.4425 50.48C34.4425 50.648 34.4105 50.808 34.3465 50.96C34.2825 51.104 34.1945 51.232 34.0825 51.344C33.9705 51.456 33.8385 51.544 33.6865 51.608C33.5425 51.672 33.3865 51.704 33.2185 51.704C33.0505 51.704 32.8905 51.672 32.7385 51.608C32.5945 51.544 32.4665 51.456 32.3545 51.344C32.2425 51.232 32.1545 51.104 32.0905 50.96C32.0265 50.808 31.9945 50.648 31.9945 50.48ZM39.6689 59L41.2049 49.952H43.5329L45.3449 54.776L47.1449 49.952H49.4729L51.0089 59H48.6689L47.8889 53.792L45.7529 59H44.8169L42.7889 53.792L42.0089 59H39.6689ZM53.9827 55.904C53.9827 56.104 54.0187 56.292 54.0907 56.468C54.1627 56.636 54.2587 56.784 54.3787 56.912C54.5067 57.04 54.6547 57.14 54.8227 57.212C54.9987 57.284 55.1867 57.32 55.3867 57.32C55.5787 57.32 55.7587 57.284 55.9267 57.212C56.1027 57.14 56.2507 57.04 56.3707 56.912C56.4987 56.784 56.5987 56.636 56.6707 56.468C56.7507 56.3 56.7907 56.12 56.7907 55.928C56.7907 55.736 56.7507 55.556 56.6707 55.388C56.5987 55.212 56.4987 55.06 56.3707 54.932C56.2507 54.804 56.1027 54.704 55.9267 54.632C55.7587 54.56 55.5787 54.524 55.3867 54.524C55.1867 54.524 54.9987 54.56 54.8227 54.632C54.6547 54.704 54.5067 54.804 54.3787 54.932C54.2587 55.06 54.1627 55.208 54.0907 55.376C54.0187 55.536 53.9827 55.712 53.9827 55.904ZM56.7187 52.844H58.9027V59H56.7187V58.316C56.2547 58.9 55.6267 59.192 54.8347 59.192C54.3867 59.192 53.9747 59.112 53.5987 58.952C53.2227 58.784 52.8947 58.552 52.6147 58.256C52.3347 57.96 52.1147 57.612 51.9547 57.212C51.8027 56.812 51.7267 56.376 51.7267 55.904C51.7267 55.464 51.8027 55.048 51.9547 54.656C52.1067 54.256 52.3187 53.908 52.5907 53.612C52.8627 53.316 53.1867 53.084 53.5627 52.916C53.9387 52.74 54.3547 52.652 54.8107 52.652C55.5787 52.652 56.2147 52.92 56.7187 53.456V52.844ZM62.5527 52.844V59H60.3807V52.844H62.5527ZM60.2367 50.48C60.2367 50.312 60.2687 50.156 60.3327 50.012C60.3967 49.86 60.4847 49.728 60.5967 49.616C60.7087 49.504 60.8367 49.416 60.9807 49.352C61.1327 49.288 61.2927 49.256 61.4607 49.256C61.6287 49.256 61.7847 49.288 61.9287 49.352C62.0807 49.416 62.2127 49.504 62.3247 49.616C62.4367 49.728 62.5247 49.86 62.5887 50.012C62.6527 50.156 62.6847 50.312 62.6847 50.48C62.6847 50.648 62.6527 50.808 62.5887 50.96C62.5247 51.104 62.4367 51.232 62.3247 51.344C62.2127 51.456 62.0807 51.544 61.9287 51.608C61.7847 51.672 61.6287 51.704 61.4607 51.704C61.2927 51.704 61.1327 51.672 60.9807 51.608C60.8367 51.544 60.7087 51.456 60.5967 51.344C60.4847 51.232 60.3967 51.104 60.3327 50.96C60.2687 50.808 60.2367 50.648 60.2367 50.48ZM66.209 49.04V59H64.037V49.04H66.209ZM74.3273 57.176H74.8433C75.4353 57.176 75.8593 57.1 76.1153 56.948C76.3713 56.796 76.4993 56.552 76.4993 56.216C76.4993 55.88 76.3713 55.636 76.1153 55.484C75.8593 55.332 75.4353 55.256 74.8433 55.256H74.3273V57.176ZM74.3273 53.504H74.7593C75.4953 53.504 75.8633 53.212 75.8633 52.628C75.8633 52.044 75.4953 51.752 74.7593 51.752H74.3273V53.504ZM71.9753 49.952H75.4793C76.3113 49.952 76.9433 50.152 77.3753 50.552C77.8073 50.952 78.0233 51.528 78.0233 52.28C78.0233 52.736 77.9393 53.116 77.7713 53.42C77.6113 53.716 77.3633 53.968 77.0273 54.176C77.3633 54.24 77.6473 54.34 77.8793 54.476C78.1193 54.604 78.3113 54.764 78.4553 54.956C78.6073 55.148 78.7153 55.364 78.7793 55.604C78.8433 55.844 78.8753 56.1 78.8753 56.372C78.8753 56.796 78.7993 57.172 78.6473 57.5C78.5033 57.828 78.2953 58.104 78.0233 58.328C77.7593 58.552 77.4353 58.72 77.0513 58.832C76.6673 58.944 76.2353 59 75.7553 59H71.9753V49.952ZM82.1319 55.892C82.1319 56.1 82.1679 56.292 82.2399 56.468C82.3199 56.636 82.4199 56.784 82.5399 56.912C82.6679 57.04 82.8159 57.14 82.9839 57.212C83.1599 57.284 83.3439 57.32 83.5359 57.32C83.7279 57.32 83.9079 57.284 84.0759 57.212C84.2519 57.14 84.3999 57.04 84.5199 56.912C84.6479 56.784 84.7479 56.636 84.8199 56.468C84.8999 56.292 84.9399 56.104 84.9399 55.904C84.9399 55.712 84.8999 55.532 84.8199 55.364C84.7479 55.188 84.6479 55.036 84.5199 54.908C84.3999 54.78 84.2519 54.68 84.0759 54.608C83.9079 54.536 83.7279 54.5 83.5359 54.5C83.3439 54.5 83.1599 54.536 82.9839 54.608C82.8159 54.68 82.6679 54.78 82.5399 54.908C82.4199 55.036 82.3199 55.184 82.2399 55.352C82.1679 55.52 82.1319 55.7 82.1319 55.892ZM79.8399 55.868C79.8399 55.412 79.9319 54.988 80.1159 54.596C80.2999 54.196 80.5559 53.852 80.8839 53.564C81.2119 53.268 81.5999 53.036 82.0479 52.868C82.5039 52.7 82.9999 52.616 83.5359 52.616C84.0639 52.616 84.5519 52.7 84.9999 52.868C85.4559 53.028 85.8479 53.256 86.1759 53.552C86.5119 53.84 86.7719 54.188 86.9559 54.596C87.1399 54.996 87.2319 55.44 87.2319 55.928C87.2319 56.416 87.1359 56.864 86.9439 57.272C86.7599 57.672 86.5039 58.02 86.1759 58.316C85.8479 58.604 85.4519 58.828 84.9879 58.988C84.5319 59.148 84.0359 59.228 83.4999 59.228C82.9719 59.228 82.4839 59.148 82.0359 58.988C81.5879 58.828 81.1999 58.6 80.8719 58.304C80.5519 58.008 80.2999 57.656 80.1159 57.248C79.9319 56.832 79.8399 56.372 79.8399 55.868ZM90.4001 55.664L87.9041 52.844H90.7361L91.7921 54.116L92.8721 52.844H95.7041L93.1481 55.664L96.2321 59H93.3521L91.7801 57.176L90.1961 59H87.3281L90.4001 55.664Z" fill="url(#paint1_linear_558_3188)"/>
<defs>
<linearGradient id="paint0_linear_558_3188" x1="32.7349" y1="-8.88856" x2="47.0305" y2="63.2" gradientUnits="userSpaceOnUse">
<stop stop-color="#F68C50" stop-opacity="0.6"/>
<stop offset="0.25" stop-color="#F16454" stop-opacity="0.727497"/>
<stop offset="0.34" stop-color="#EF5656" stop-opacity="0.773396"/>
<stop offset="0.495" stop-color="#EB3E58" stop-opacity="0.852444"/>
<stop offset="0.784331" stop-color="#E5115D"/>
</linearGradient>
<linearGradient id="paint1_linear_558_3188" x1="28.8751" y1="48.1819" x2="29.3855" y2="63.4901" gradientUnits="userSpaceOnUse">
<stop stop-color="#F68C50" stop-opacity="0.6"/>
<stop offset="0.25" stop-color="#F16454" stop-opacity="0.727497"/>
<stop offset="0.34" stop-color="#EF5656" stop-opacity="0.773396"/>
<stop offset="0.495" stop-color="#EB3E58" stop-opacity="0.852444"/>
<stop offset="0.784331" stop-color="#E5115D"/>
</linearGradient>
</defs>
</svg>
